<svg width="162" height="92" viewBox="0 0 162 92" fill="none" xmlns="http://www.w3.org/2000/svg">
<g clip-path="url(#clip0_56_1849)">
<path d="M19.7 38.6333H14.9V21.8333H10.1V38.6333H5.3V21.8333H0.5V38.6333C0.5 43.7213 4.484 47.8493 9.5 48.1613V69.8333H15.5V48.1613C20.516 47.8493 24.5 43.7213 24.5 38.6333V21.8333H19.7V38.6333ZM31.7 31.4333V50.6333H37.7V69.8333H43.7V21.8333C37.076 21.8333 31.7 27.2093 31.7 31.4333Z" fill="#388E3C"/>
</g>
<path d="M86.3333 0C61.125 0 40.5 20.625 40.5 45.8333C40.5 71.0417 61.125 91.6667 86.3333 91.6667C111.542 91.6667 132.167 71.0417 132.167 45.8333C132.167 20.625 111.542 0 86.3333 0ZM86.3333 82.5C66.1208 82.5 49.6667 66.0458 49.6667 45.8333C49.6667 25.6208 66.1208 9.16667 86.3333 9.16667C106.546 9.16667 123 25.6208 123 45.8333C123 66.0458 106.546 82.5 86.3333 82.5ZM107.371 25.575L77.1667 55.7792L65.2958 43.9542L58.8333 50.4167L77.1667 68.75L113.833 32.0833L107.371 25.575Z" fill="#388E3C"/>
<g clip-path="url(#clip1_56_1849)">
<path d="M134.917 37.8833H129.617V19.3333H124.317V37.8833H119.017V19.3333H113.717V37.8833C113.717 43.5013 118.116 48.0593 123.654 48.4038V72.3333H130.279V48.4038C135.818 48.0593 140.217 43.5013 140.217 37.8833V19.3333H134.917V37.8833ZM148.167 29.9333V51.1333H154.792V72.3333H161.417V19.3333C154.103 19.3333 148.167 25.2693 148.167 29.9333Z" fill="#388E3C"/>
</g>
<defs>
<clipPath id="clip0_56_1849">
<rect width="24" height="48" fill="white" transform="translate(0.5 21.8333)"/>
</clipPath>
<clipPath id="clip1_56_1849">
<rect width="13.25" height="53" fill="white" transform="translate(148.167 19.3333)"/>
</clipPath>
</defs>
</svg>
